<svg xmlns="http://www.w3.org/2000/svg" viewBox="0 0 78.36 24"><defs><style>.cls-1{fill:#00aeff;fill-rule:evenodd;}.cls-2{fill:#1a1a1b;}</style></defs><g id="Layer_2" data-name="Layer 2"><g id="Layer_1-2" data-name="Layer 1"><path class="cls-1" d="M9,0H0V24H9V19.78H5.35V4.18H9Z"/><path class="cls-1" d="M15,0h9V24H15V19.78h3.65V4.18H15Z"/><polygon class="cls-2" points="43.08 5 45.5 5 45.5 19 43.08 19 43.08 12.66 36.06 12.66 36.06 19 33.64 19 33.64 5 36.06 5 36.06 10.62 43.08 10.62 43.08 5"/><polygon class="cls-2" points="58.86 5 61.28 5 61.28 19 57.92 19 52 7.64 52 19 49.58 19 49.58 5 53.1 5 58.86 16.04 58.86 5"/><path class="cls-2" d="M78.36,11.62v2H75.8a2.27,2.27,0,0,1,1.26,2.08c0,2-2.12,3.54-5.28,3.54-4.32,0-7.14-2.92-7.14-7.32s2.7-7.24,7-7.24c3.4,0,5.8,1.82,5.5,5.18H74.66c.24-2.06-1.12-3.06-3-3.06-2.76,0-4.48,2-4.48,5.12s1.8,5.2,4.6,5.2c1.66,0,2.82-.7,2.82-1.8s-1.08-1.7-3-1.7v-2Z"/></g></g></svg>